Coordinates
version=1
nRows=4
nColumns=107
inDegrees=yes

Units are S.I. units (second, meters, Newtons, ...)
If the header above contains a line with 'inDegrees', this indicates whether rotational values are in degrees (yes) or radians (no).

endheader
time	sternoclavicular_r2	sternoclavicular_r3	unrotscap_r3	unrotscap_r2	acromioclavicular_r2	acromioclavicular_r3	acromioclavicular_r1	unrothum_r1	unrothum_r3	unrothum_r2	elv_angle	shoulder_elv	shoulder1_r2	shoulder_rot	elbow_flexion	pro_sup	deviation	flexion	proximal_distal_r1	proximal_distal_r3	cmc_flexion	cmc_abduction	mp_flexion	ip_flexion	mcp2_flexion	mcp2_abduction	pm2_flexion	md2_flexion	mcp3_flexion	mcp3_abduction	pm3_flexion	md3_flexion	mcp4_flexion	mcp4_abduction	pm4_flexion	md4_flexion	mcp5_flexion	mcp5_abduction	pm5_flexion	md5_flexion	bicpt_tx	bicpt_ty	bicpt_tz	bicpt2_tx	bicpt2_ty	bicpt2_tz	ptpt_tx	ptpt_ty	ptpt_tz	FCUpt_tx	FCUpt_ty	FCUpt_tz	EDCpt_tx	EDCpt_ty	EDCpt_tz	APLpt_tx	APLpt_ty	APLpt_tz	FPLpt_tx	FPLpt_ty	FPLpt_tz	FPLpt2_tx	FPLpt2_ty	FPLpt2_tz	PEC1pt2_tx	PEC1pt2_ty	PEC1pt2_tz	PEC1pt3_tx	PEC1pt3_ty	PEC1pt3_tz	PEC2pt2_tx	PEC2pt2_ty	PEC2pt2_tz	PEC2pt3_tx	PEC2pt3_ty	PEC2pt3_tz	PEC3pt2_tx	PEC3pt2_ty	PEC3pt2_tz	PEC3pt3_tx	PEC3pt3_ty	PEC3pt3_tz	DELT2pt2a_tx	DELT2pt2a_ty	DELT2pt2a_tz	DELT2pt2_tx	DELT2pt2_ty	DELT2pt2_tz	LAT1pt2_tx	LAT1pt2_ty	LAT1pt2_tz	LAT1pt3_tx	LAT1pt3_ty	LAT1pt3_tz	LAT2pt2_tx	LAT2pt2_ty	LAT2pt2_tz	LAT2pt3_tx	LAT2pt3_ty	LAT2pt3_tz	LAT3pt2_tx	LAT3pt2_ty	LAT3pt2_tz	LAT3pt3_tx	LAT3pt3_ty	LAT3pt3_tz
      0.40000000	     -0.32602102	      0.13808712	     -0.13808712	      0.32602102	     -0.06601262	      0.53349081	      0.23980045	     -0.23980045	     -0.53349081	      0.06601262	     99.06224185	     77.18837442	     -1.72896228	    -20.43093174	     27.72431737	     35.15500750	      0.19848144	      0.22714788	      0.23712239	      0.11357394	     32.78422044	      3.54134014	      6.77717256	     10.37334562	    -22.74510422	     13.35742207	      9.44236065	    -31.13636727	    -35.07339529	      8.58097692	      7.87020086	     11.89504701	    -33.73829625	      0.09054623	     -6.88857868	     21.06387681	    -41.03794701	    -14.29855004	     -9.41738923	      5.03214350	      0.00081703	     -0.03077763	     -0.00481183	      0.01653851	     -0.01773145	     -0.00797079	      0.00495244	     -0.06657962	     -0.00288192	      0.00729607	     -0.18359252	     -0.00034319	     -0.00421859	      0.00118678	      0.00017484	     -0.00027561	     -0.00011024	     -0.00055122	     -0.00035278	     -0.00105835	     -0.00059532	     -0.00001156	     -0.00022249	     -0.00026699	      0.00253007	      0.00887667	      0.00617508	     -0.00827632	      0.01998323	     -0.01895405	      0.00253007	      0.00887667	      0.00617508	      0.00055747	      0.01852523	     -0.00973432	      0.00398641	      0.00493620	      0.01606092	      0.00000000	      0.00796959	      0.00000000	     -0.00724714	     -0.03349121	     -0.00657233	      0.01402369	     -0.00044521	     -0.00344924	     -0.00090053	      0.01509463	     -0.00617508	      0.00248718	      0.02178429	     -0.01801064	     -0.00604643	      0.01307915	     -0.00553184	     -0.01260745	      0.02761631	     -0.03091826	     -0.02367112	      0.01462292	     -0.00741867	     -0.01569498	      0.03190456	     -0.03863710
      0.43333333	     -0.32716489	      0.13857161	     -0.13857161	      0.32716489	     -0.06624424	      0.53536261	      0.24064181	     -0.24064181	     -0.53536261	      0.06624424	     98.81683024	     77.45919635	     -1.72467904	    -18.95525833	     27.61088954	     33.11044765	      0.19842625	      0.20654227	      0.23706586	      0.10327114	     32.02881155	      3.82885457	      8.17246616	      8.65115354	    -21.97094421	     13.39490711	      9.44488138	    -32.72955965	    -34.63737253	      8.57453006	      7.24411244	     12.12269784	    -33.28526734	      0.04315612	     -7.81375441	     23.07528088	    -41.47106828	    -14.28406215	     -8.73658474	      5.04427194	      0.00081328	     -0.03076463	     -0.00480974	      0.01650724	     -0.01770063	     -0.00817223	      0.00510351	     -0.06648194	     -0.00271722	      0.00709393	     -0.18363164	     -0.00031964	     -0.00397324	      0.00110731	      0.00018302	     -0.00024704	     -0.00009882	     -0.00049409	     -0.00031622	     -0.00094865	     -0.00053361	     -0.00001090	     -0.00023083	     -0.00027700	      0.00253894	      0.00890782	      0.00619674	     -0.00830535	      0.02005334	     -0.01902055	      0.00253894	      0.00890782	      0.00619674	      0.00055943	      0.01859022	     -0.00976847	      0.00399655	      0.00495352	      0.01608524	      0.00000000	      0.00802602	      0.00000000	     -0.00727256	     -0.03360871	     -0.00661917	      0.01316609	     -0.00040007	     -0.00294420	     -0.00090369	      0.01514759	     -0.00619674	      0.00249591	      0.02186072	     -0.01807383	     -0.00606764	      0.01312504	     -0.00555125	     -0.01265168	      0.02771320	     -0.03102674	     -0.02375417	      0.01467423	     -0.00744470	     -0.01575005	      0.03201649	     -0.03877266
      0.46666667	     -0.32916914	      0.13942051	     -0.13942051	      0.32916914	     -0.06665006	      0.53864230	      0.24211601	     -0.24211601	     -0.53864230	      0.06665006	     98.48117159	     77.93371986	     -1.71882070	    -16.75198693	     27.43952011	     31.18856567	      0.20388025	      0.20905006	      0.24267153	      0.10452503	     32.16235781	      3.32228344	      8.32043826	      8.46485420	    -22.70177442	     13.29086541	     10.00065888	    -33.30015917	    -35.09234313	      8.33549202	      7.55871273	     12.09804270	    -33.69230542	     -0.09349605	     -7.88043039	     23.07646045	    -41.64119402	    -14.30087240	     -9.08247114	      5.06526441	      0.00080761	     -0.03074499	     -0.00480658	      0.01646913	     -0.01765408	     -0.00835623	      0.00524552	     -0.06639012	     -0.00256241	      0.00690509	     -0.18366734	     -0.00029463	     -0.00374262	      0.00103379	      0.00018864	     -0.00025048	     -0.00010019	     -0.00050097	     -0.00032062	     -0.00096186	     -0.00054104	     -0.00001102	     -0.00022938	     -0.00027526	      0.00255450	      0.00896239	      0.00623470	     -0.00835623	      0.02017619	     -0.01913707	      0.00255450	      0.00896239	      0.00623470	      0.00056286	      0.01870411	     -0.00982832	      0.00401425	      0.00498387	      0.01612743	      0.00000000	      0.00812539	      0.00000000	     -0.00731712	     -0.03381460	     -0.00670163	      0.01183142	     -0.00033434	     -0.00225607	     -0.00090923	      0.01524038	     -0.00623470	      0.00251120	      0.02199465	     -0.01818455	     -0.00610481	      0.01320545	     -0.00558525	     -0.01272918	      0.02788298	     -0.03121681	     -0.02389969	      0.01476412	     -0.00749030	     -0.01584654	      0.03221263	     -0.03901019
      0.50000000	     -0.32888143	      0.13929865	     -0.13929865	      0.32888143	     -0.06659180	      0.53817150	      0.24190438	     -0.24190438	     -0.53817150	      0.06659180	     98.53211478	     77.86560154	     -1.71970982	    -17.09760758	     27.46396201	     31.44438314	      0.20112648	      0.20718225	      0.23984762	      0.10359112	     32.14687628	      3.44308296	      8.21048886	      8.38779041	    -22.62202398	     13.29640158	     10.03281513	    -33.77289757	    -35.09583563	      8.35395051	      7.54525086	     12.07324876	    -33.72000031	     -0.12595435	     -7.82028355	     23.05472019	    -41.69748229	    -14.30030298	     -8.97449586	      5.05162039	      0.00080842	     -0.03074779	     -0.00480703	      0.01647472	     -0.01766072	     -0.00833206	      0.00522661	     -0.06640234	     -0.00258301	      0.00693016	     -0.18366265	     -0.00029813	     -0.00377332	      0.00104350	      0.00018801	     -0.00024791	     -0.00009916	     -0.00049582	     -0.00031732	     -0.00095197	     -0.00053548	     -0.00001101	     -0.00022956	     -0.00027547	      0.00255226	      0.00895455	      0.00622925	     -0.00834893	      0.02015856	     -0.01912035	      0.00255226	      0.00895455	      0.00622925	      0.00056236	      0.01868776	     -0.00981973	      0.00401171	      0.00497951	      0.01612141	      0.00000000	      0.00811109	      0.00000000	     -0.00731072	     -0.03378505	     -0.00668976	      0.01204509	     -0.00034452	     -0.00235866	     -0.00090843	      0.01522706	     -0.00622925	      0.00250900	      0.02197542	     -0.01816866	     -0.00609948	      0.01319390	     -0.00558037	     -0.01271806	      0.02785861	     -0.03118953	     -0.02387880	      0.01475122	     -0.00748376	     -0.01583269	      0.03218448	     -0.03897609
